<!DOCTYPE svg PUBLIC "-//W3C//DTD SVG 1.1//EN" "http://www.w3.org/Graphics/SVG/1.1/DTD/svg11.dtd">
<!-- Uploaded to: SVG Repo, www.svgrepo.com, Transformed by: SVG Repo Mixer Tools -->
<svg fill="#368c08" height="800px" width="800px" version="1.1" id="Layer_1" xmlns="http://www.w3.org/2000/svg" xmlns:xlink="http://www.w3.org/1999/xlink" viewBox="-51.2 -51.2 614.40 614.40" xml:space="preserve" stroke="#368c08">
<g id="SVGRepo_bgCarrier" stroke-width="0"/>
<g id="SVGRepo_tracerCarrier" stroke-linecap="round" stroke-linejoin="round"/>
<g id="SVGRepo_iconCarrier"> <g> <g> <g> <path d="M138.667,341.333h-64C68.779,341.333,64,346.112,64,352v64c0,5.888,4.779,10.667,10.667,10.667h64 c5.888,0,10.667-4.779,10.667-10.667v-64C149.333,346.112,144.555,341.333,138.667,341.333z M128,405.333H85.333v-42.667H128 V405.333z"/> <path d="M373.333,320h64c5.888,0,10.667-4.779,10.667-10.667v-64c0-5.888-4.779-10.667-10.667-10.667h-64 c-5.888,0-10.667,4.779-10.667,10.667v64C362.667,315.221,367.445,320,373.333,320z M384,256h42.667v42.667H384V256z"/> <path d="M373.333,213.333h64c5.888,0,10.667-4.779,10.667-10.667v-64c0-5.888-4.779-10.667-10.667-10.667h-64 c-5.888,0-10.667,4.779-10.667,10.667v64C362.667,208.555,367.445,213.333,373.333,213.333z M384,149.333h42.667V192H384V149.333 z"/> <path d="M373.333,426.667h64c5.888,0,10.667-4.779,10.667-10.667v-64c0-5.888-4.779-10.667-10.667-10.667h-64 c-5.888,0-10.667,4.779-10.667,10.667v64C362.667,421.888,367.445,426.667,373.333,426.667z M384,362.667h42.667v42.667H384 V362.667z"/> <path d="M501.333,106.667c5.888,0,10.667-4.779,10.667-10.667V53.333c0-5.888-4.779-10.667-10.667-10.667H448v-32 C448,4.779,443.221,0,437.333,0H74.667C68.779,0,64,4.779,64,10.667v32H10.667C4.779,42.667,0,47.445,0,53.333V96 c0,5.888,4.779,10.667,10.667,10.667h10.667V448H10.667C4.779,448,0,452.779,0,458.667v42.667C0,507.221,4.779,512,10.667,512 h490.667c5.888,0,10.667-4.779,10.667-10.667v-42.667c0-5.888-4.779-10.667-10.667-10.667h-10.667V106.667H501.333z M85.333,21.333h341.333v21.333H85.333V21.333z M490.667,490.667H21.333v-21.333h469.333V490.667z M288,341.333h-64 c-5.888,0-10.667,4.779-10.667,10.667v96H42.667V106.667h426.667V448H298.667v-96C298.667,346.112,293.888,341.333,288,341.333z M277.333,362.667V448h-42.667v-85.333H277.333z M21.333,85.333V64h469.333v21.333H21.333z"/> <path d="M298.667,245.333c0-5.888-4.779-10.667-10.667-10.667h-64c-5.888,0-10.667,4.779-10.667,10.667v64 c0,5.888,4.779,10.667,10.667,10.667h64c5.888,0,10.667-4.779,10.667-10.667V245.333z M277.333,298.667h-42.667V256h42.667 V298.667z"/> <path d="M224,213.333h64c5.888,0,10.667-4.779,10.667-10.667v-64c0-5.888-4.779-10.667-10.667-10.667h-64 c-5.888,0-10.667,4.779-10.667,10.667v64C213.333,208.555,218.112,213.333,224,213.333z M234.667,149.333h42.667V192h-42.667 V149.333z"/> <path d="M138.667,128h-64C68.779,128,64,132.779,64,138.667v64c0,5.888,4.779,10.667,10.667,10.667h64 c5.888,0,10.667-4.779,10.667-10.667v-64C149.333,132.779,144.555,128,138.667,128z M128,192H85.333v-42.667H128V192z"/> <path d="M138.667,234.667h-64c-5.888,0-10.667,4.779-10.667,10.667v64C64,315.221,68.779,320,74.667,320h64 c5.888,0,10.667-4.779,10.667-10.667v-64C149.333,239.445,144.555,234.667,138.667,234.667z M128,298.667H85.333V256H128V298.667 z"/> </g> </g> </g> </g>
</svg>