<svg width="181" height="46" viewBox="0 0 181 46" fill="none" xmlns="http://www.w3.org/2000/svg">
<g filter="url(#filter0_d_40_18)">
<path d="M16.98 3.72V15.48H18.88V22.16H15.96V18H7.02V22.16H4.1V15.48H5.2C5.57333 14.7333 5.93333 13.9467 6.28 13.12C6.62667 12.2933 6.94667 11.4067 7.24 10.46C7.54667 9.51333 7.82 8.48667 8.06 7.38C8.3 6.26 8.5 5.04 8.66 3.72H16.98ZM11.06 6.24C10.9667 6.93333 10.8333 7.67333 10.66 8.46C10.4867 9.23333 10.28 10.0267 10.04 10.84C9.81333 11.6533 9.56 12.4533 9.28 13.24C9 14.0267 8.7 14.7733 8.38 15.48H13.96V6.24H11.06ZM25.3134 6.86C26.7801 6.86 27.9001 7.18 28.6734 7.82C29.4601 8.44667 29.8534 9.41333 29.8534 10.72V18H27.7734L27.1934 16.52H27.1134C26.8068 16.9067 26.4868 17.2267 26.1534 17.48C25.8334 17.7333 25.4601 17.9133 25.0334 18.02C24.6201 18.14 24.1068 18.2 23.4934 18.2C22.8534 18.2 22.2734 18.08 21.7534 17.84C21.2468 17.5867 20.8468 17.2067 20.5534 16.7C20.2601 16.18 20.1134 15.5267 20.1134 14.74C20.1134 13.58 20.5201 12.7267 21.3334 12.18C22.1468 11.62 23.3668 11.3133 24.9934 11.26L26.8934 11.2V10.72C26.8934 10.1467 26.7401 9.72667 26.4334 9.46C26.1401 9.19333 25.7268 9.06 25.1934 9.06C24.6601 9.06 24.1401 9.14 23.6334 9.3C23.1268 9.44667 22.6201 9.63333 22.1134 9.86L21.1334 7.84C21.7201 7.53333 22.3668 7.29333 23.0734 7.12C23.7934 6.94667 24.5401 6.86 25.3134 6.86ZM25.7334 12.98C24.7734 13.0067 24.1068 13.18 23.7334 13.5C23.3601 13.82 23.1734 14.24 23.1734 14.76C23.1734 15.2133 23.3068 15.54 23.5734 15.74C23.8401 15.9267 24.1868 16.02 24.6134 16.02C25.2534 16.02 25.7934 15.8333 26.2334 15.46C26.6734 15.0733 26.8934 14.5333 26.8934 13.84V12.94L25.7334 12.98ZM42.6838 18H39.7038V9.32H36.9638C36.8304 10.92 36.6638 12.2867 36.4638 13.42C36.2771 14.54 36.0371 15.4533 35.7438 16.16C35.4638 16.8667 35.1038 17.3867 34.6638 17.72C34.2238 18.04 33.6838 18.2 33.0438 18.2C32.6971 18.2 32.3838 18.1733 32.1038 18.12C31.8238 18.0667 31.5704 17.9867 31.3438 17.88V15.5C31.4904 15.5533 31.6438 15.6 31.8038 15.64C31.9638 15.68 32.1304 15.7 32.3038 15.7C32.4904 15.7 32.6638 15.6267 32.8238 15.48C32.9971 15.3333 33.1571 15.0733 33.3038 14.7C33.4638 14.3267 33.6104 13.8133 33.7438 13.16C33.8771 12.5067 33.9971 11.6867 34.1038 10.7C34.2238 9.7 34.3304 8.49333 34.4238 7.08H42.6838V18ZM50.8744 11.3C51.9944 11.3 52.921 11.42 53.6544 11.66C54.3877 11.8867 54.9277 12.24 55.2744 12.72C55.6344 13.2 55.8144 13.8 55.8144 14.52C55.8144 15.2267 55.6477 15.84 55.3144 16.36C54.9944 16.88 54.481 17.2867 53.7744 17.58C53.0677 17.86 52.141 18 50.9944 18H45.7944V7.08H48.7744V11.3H50.8744ZM52.8344 14.56C52.8344 14.1333 52.661 13.8267 52.3144 13.64C51.981 13.4533 51.481 13.36 50.8144 13.36H48.7744V15.94H50.8544C51.441 15.94 51.9144 15.8333 52.2744 15.62C52.6477 15.4067 52.8344 15.0533 52.8344 14.56ZM57.1195 13.86V11.42H62.3595V13.86H57.1195ZM67.4048 11.4C67.4048 11.6267 67.3915 11.9067 67.3648 12.24C67.3515 12.5733 67.3315 12.9133 67.3048 13.26C67.2915 13.6067 67.2715 13.9133 67.2448 14.18C67.2182 14.4467 67.1982 14.6333 67.1848 14.74L72.2248 7.08H75.8048V18H72.9248V13.64C72.9248 13.28 72.9382 12.8867 72.9648 12.46C72.9915 12.02 73.0182 11.6133 73.0448 11.24C73.0848 10.8533 73.1115 10.56 73.1248 10.36L68.1048 18H64.5248V7.08H67.4048V11.4ZM81.8994 7.08V11.28H86.0594V7.08H89.0394V18H86.0594V13.5H81.8994V18H78.9194V7.08H81.8994ZM101.842 9.94C101.842 10.5267 101.655 11.0267 101.282 11.44C100.922 11.8533 100.382 12.12 99.6616 12.24V12.32C100.422 12.4133 101.028 12.6733 101.482 13.1C101.948 13.5267 102.182 14.0733 102.182 14.74C102.182 15.2067 102.088 15.64 101.902 16.04C101.728 16.44 101.448 16.7867 101.062 17.08C100.675 17.3733 100.175 17.6 99.5616 17.76C98.9616 17.92 98.2282 18 97.3616 18H92.1616V7.08H97.3616C98.2149 7.08 98.9749 7.17333 99.6416 7.36C100.322 7.53333 100.855 7.82667 101.242 8.24C101.642 8.65333 101.842 9.22 101.842 9.94ZM99.1016 14.58C99.1016 14.1533 98.9349 13.8467 98.6016 13.66C98.2682 13.46 97.7682 13.36 97.1016 13.36H95.1416V15.94H97.1616C97.7216 15.94 98.1816 15.84 98.5416 15.64C98.9149 15.4267 99.1016 15.0733 99.1016 14.58ZM98.8216 10.18C98.8216 9.83333 98.6882 9.58 98.4216 9.42C98.1549 9.26 97.7616 9.18 97.2416 9.18H95.1416V11.34H96.9016C97.5282 11.34 98.0016 11.2533 98.3216 11.08C98.6549 10.8933 98.8216 10.5933 98.8216 10.18ZM109.24 6.88C110.253 6.88 111.12 7.07333 111.84 7.46C112.573 7.84667 113.14 8.40667 113.54 9.14C113.94 9.87333 114.14 10.7733 114.14 11.84V13.28H107.1C107.126 14.12 107.373 14.78 107.84 15.26C108.32 15.74 108.98 15.98 109.82 15.98C110.526 15.98 111.166 15.9133 111.74 15.78C112.313 15.6333 112.906 15.4133 113.52 15.12V17.42C112.986 17.6867 112.42 17.88 111.82 18C111.233 18.1333 110.52 18.2 109.68 18.2C108.586 18.2 107.62 18 106.78 17.6C105.94 17.1867 105.28 16.5667 104.8 15.74C104.32 14.9133 104.08 13.8733 104.08 12.62C104.08 11.34 104.293 10.28 104.72 9.44C105.16 8.58667 105.766 7.94667 106.54 7.52C107.313 7.09333 108.213 6.88 109.24 6.88ZM109.26 9C108.686 9 108.206 9.18667 107.82 9.56C107.446 9.93333 107.226 10.5133 107.16 11.3H111.34C111.34 10.86 111.26 10.4667 111.1 10.12C110.953 9.77333 110.726 9.5 110.42 9.3C110.113 9.1 109.726 9 109.26 9ZM120.996 18.2C119.916 18.2 118.996 18.0067 118.236 17.62C117.476 17.22 116.896 16.6067 116.496 15.78C116.096 14.9533 115.896 13.8933 115.896 12.6C115.896 11.2667 116.123 10.18 116.576 9.34C117.029 8.5 117.656 7.88 118.456 7.48C119.269 7.08 120.203 6.88 121.256 6.88C122.003 6.88 122.649 6.95333 123.196 7.1C123.756 7.24667 124.243 7.42 124.656 7.62L123.776 9.92C123.309 9.73333 122.869 9.58 122.456 9.46C122.056 9.34 121.656 9.28 121.256 9.28C120.736 9.28 120.303 9.40667 119.956 9.66C119.609 9.9 119.349 10.2667 119.176 10.76C119.016 11.24 118.936 11.8467 118.936 12.58C118.936 13.3 119.023 13.9 119.196 14.38C119.383 14.8467 119.649 15.2 119.996 15.44C120.343 15.6667 120.763 15.78 121.256 15.78C121.883 15.78 122.436 15.7 122.916 15.54C123.396 15.3667 123.863 15.1333 124.316 14.84V17.38C123.863 17.6733 123.383 17.88 122.876 18C122.383 18.1333 121.756 18.2 120.996 18.2ZM135.87 9.32H132.29V18H129.31V9.32H125.73V7.08H135.87V9.32ZM136.534 13.86V11.42H141.774V13.86H136.534ZM152.588 9.32H149.008V18H146.028V9.32H142.448V7.08H152.588V9.32ZM153.043 7.08H156.303L158.363 13.22C158.43 13.42 158.483 13.62 158.523 13.82C158.576 14.02 158.616 14.2267 158.643 14.44C158.683 14.6533 158.71 14.88 158.723 15.12H158.783C158.823 14.7733 158.876 14.4467 158.943 14.14C159.023 13.82 159.11 13.5133 159.203 13.22L161.223 7.08H164.423L159.803 19.4C159.523 20.1467 159.156 20.7733 158.703 21.28C158.263 21.7867 157.75 22.1667 157.163 22.42C156.576 22.6733 155.936 22.8 155.243 22.8C154.91 22.8 154.616 22.78 154.363 22.74C154.123 22.7133 153.91 22.68 153.723 22.64V20.28C153.87 20.3067 154.043 20.3333 154.243 20.36C154.456 20.3867 154.676 20.4 154.903 20.4C155.316 20.4 155.67 20.3133 155.963 20.14C156.27 19.9667 156.523 19.7267 156.723 19.42C156.923 19.1267 157.083 18.8067 157.203 18.46L157.383 17.92L153.043 7.08ZM172.07 6.88C173.296 6.88 174.29 7.36 175.05 8.32C175.81 9.26667 176.19 10.6667 176.19 12.52C176.19 13.76 176.01 14.8067 175.65 15.66C175.29 16.5 174.796 17.1333 174.17 17.56C173.543 17.9867 172.816 18.2 171.99 18.2C171.47 18.2 171.016 18.1333 170.63 18C170.256 17.8667 169.936 17.6933 169.67 17.48C169.403 17.2667 169.17 17.04 168.97 16.8H168.81C168.863 17.0533 168.903 17.32 168.93 17.6C168.956 17.8667 168.97 18.1333 168.97 18.4V22.8H165.99V7.08H168.41L168.83 8.5H168.97C169.17 8.20667 169.41 7.94 169.69 7.7C169.97 7.44667 170.303 7.24667 170.69 7.1C171.09 6.95333 171.55 6.88 172.07 6.88ZM171.11 9.26C170.59 9.26 170.176 9.36667 169.87 9.58C169.563 9.79333 169.336 10.12 169.19 10.56C169.056 10.9867 168.983 11.5267 168.97 12.18V12.5C168.97 13.2067 169.036 13.8067 169.17 14.3C169.303 14.78 169.53 15.1467 169.85 15.4C170.17 15.6533 170.603 15.78 171.15 15.78C171.603 15.78 171.976 15.6533 172.27 15.4C172.563 15.1467 172.783 14.7733 172.93 14.28C173.076 13.7867 173.15 13.1867 173.15 12.48C173.15 11.4133 172.983 10.6133 172.65 10.08C172.33 9.53333 171.816 9.26 171.11 9.26Z" fill="black"/>
</g>
<path d="M41.6 42C41.5 42 41.42 41.97 41.36 41.91C41.3 41.85 41.27 41.77 41.27 41.67V35.07H38.525C38.425 35.07 38.345 35.04 38.285 34.98C38.225 34.92 38.195 34.84 38.195 34.74V34.53C38.195 34.43 38.225 34.35 38.285 34.29C38.345 34.23 38.425 34.2 38.525 34.2H44.93C45.03 34.2 45.11 34.23 45.17 34.29C45.23 34.35 45.26 34.43 45.26 34.53V34.74C45.26 34.84 45.23 34.92 45.17 34.98C45.11 35.04 45.03 35.07 44.93 35.07H42.185V41.67C42.185 41.77 42.155 41.85 42.095 41.91C42.035 41.97 41.955 42 41.855 42H41.6ZM47.9011 44.85C47.8011 44.85 47.7211 44.82 47.6611 44.76C47.6011 44.7 47.5711 44.62 47.5711 44.52V44.31C47.5711 44.21 47.6011 44.13 47.6611 44.07C47.7211 44.01 47.8011 43.98 47.9011 43.98H48.2461C48.4861 43.98 48.6811 43.93 48.8311 43.83C48.9811 43.73 49.1161 43.56 49.2361 43.32C49.3661 43.08 49.5211 42.75 49.7011 42.33L53.0611 34.425C53.0911 34.355 53.1311 34.3 53.1811 34.26C53.2311 34.22 53.3061 34.2 53.4061 34.2H53.6761C53.7561 34.2 53.8261 34.23 53.8861 34.29C53.9461 34.35 53.9761 34.42 53.9761 34.5C53.9761 34.54 53.9661 34.58 53.9461 34.62C53.9361 34.66 53.9161 34.72 53.8861 34.8L51.0361 41.49C50.9061 41.8 50.7611 42.145 50.6011 42.525C50.4411 42.915 50.2611 43.285 50.0611 43.635C49.8611 43.995 49.6261 44.285 49.3561 44.505C49.0861 44.735 48.7711 44.85 48.4111 44.85H47.9011ZM50.1211 41.745L47.1211 34.8C47.0611 34.65 47.0311 34.55 47.0311 34.5C47.0311 34.42 47.0611 34.35 47.1211 34.29C47.1811 34.23 47.2511 34.2 47.3311 34.2H47.6161C47.7161 34.2 47.7911 34.225 47.8411 34.275C47.8911 34.315 47.9311 34.365 47.9611 34.425L50.6011 40.59L50.1211 41.745ZM57.0555 44.85C56.9555 44.85 56.8755 44.82 56.8155 44.76C56.7555 44.7 56.7255 44.62 56.7255 44.52V34.53C56.7255 34.43 56.7555 34.35 56.8155 34.29C56.8755 34.23 56.9555 34.2 57.0555 34.2H57.3105C57.4105 34.2 57.4905 34.23 57.5505 34.29C57.6105 34.35 57.6405 34.43 57.6405 34.53V35.235C57.8905 34.895 58.2155 34.615 58.6155 34.395C59.0255 34.165 59.5405 34.05 60.1605 34.05C60.7505 34.05 61.2455 34.155 61.6455 34.365C62.0455 34.565 62.3705 34.835 62.6205 35.175C62.8705 35.515 63.0555 35.895 63.1755 36.315C63.2955 36.735 63.3605 37.165 63.3705 37.605C63.3805 37.755 63.3855 37.92 63.3855 38.1C63.3855 38.28 63.3805 38.445 63.3705 38.595C63.3605 39.035 63.2955 39.465 63.1755 39.885C63.0555 40.305 62.8705 40.685 62.6205 41.025C62.3705 41.365 62.0455 41.64 61.6455 41.85C61.2455 42.05 60.7505 42.15 60.1605 42.15C59.5405 42.15 59.0255 42.035 58.6155 41.805C58.2155 41.575 57.8905 41.295 57.6405 40.965V44.52C57.6405 44.62 57.6105 44.7 57.5505 44.76C57.4905 44.82 57.4105 44.85 57.3105 44.85H57.0555ZM60.0705 41.28C60.6605 41.28 61.1255 41.15 61.4655 40.89C61.8055 40.63 62.0505 40.29 62.2005 39.87C62.3505 39.45 62.4355 39 62.4555 38.52C62.4655 38.24 62.4655 37.96 62.4555 37.68C62.4355 37.2 62.3505 36.75 62.2005 36.33C62.0505 35.91 61.8055 35.57 61.4655 35.31C61.1255 35.05 60.6605 34.92 60.0705 34.92C59.5005 34.92 59.0405 35.055 58.6905 35.325C58.3405 35.595 58.0805 35.935 57.9105 36.345C57.7505 36.745 57.6605 37.15 57.6405 37.56C57.6305 37.71 57.6255 37.905 57.6255 38.145C57.6255 38.385 57.6305 38.58 57.6405 38.73C57.6505 39.13 57.7405 39.525 57.9105 39.915C58.0905 40.305 58.3555 40.63 58.7055 40.89C59.0655 41.15 59.5205 41.28 60.0705 41.28ZM68.5763 42.15C68.0963 42.15 67.6513 42.05 67.2413 41.85C66.8413 41.65 66.5163 41.385 66.2663 41.055C66.0163 40.715 65.8913 40.335 65.8913 39.915C65.8913 39.235 66.1663 38.69 66.7163 38.28C67.2663 37.87 67.9813 37.605 68.8613 37.485L71.2313 37.155V36.63C71.2313 36.1 71.0663 35.685 70.7363 35.385C70.4163 35.075 69.9013 34.92 69.1913 34.92C68.6713 34.92 68.2513 35.025 67.9313 35.235C67.6113 35.435 67.3913 35.7 67.2713 36.03C67.2213 36.18 67.1263 36.255 66.9863 36.255H66.7463C66.6263 36.255 66.5413 36.225 66.4913 36.165C66.4413 36.095 66.4163 36.015 66.4163 35.925C66.4163 35.785 66.4663 35.61 66.5663 35.4C66.6763 35.19 66.8413 34.985 67.0613 34.785C67.2813 34.575 67.5663 34.4 67.9163 34.26C68.2663 34.12 68.6913 34.05 69.1913 34.05C69.7813 34.05 70.2663 34.13 70.6463 34.29C71.0363 34.45 71.3363 34.66 71.5463 34.92C71.7663 35.17 71.9213 35.45 72.0113 35.76C72.1013 36.07 72.1463 36.375 72.1463 36.675V41.67C72.1463 41.77 72.1163 41.85 72.0563 41.91C71.9963 41.97 71.9163 42 71.8163 42H71.5613C71.4613 42 71.3813 41.97 71.3213 41.91C71.2613 41.85 71.2313 41.77 71.2313 41.67V40.965C71.1113 41.145 70.9413 41.325 70.7213 41.505C70.5013 41.685 70.2163 41.84 69.8663 41.97C69.5263 42.09 69.0963 42.15 68.5763 42.15ZM68.7263 41.28C69.1863 41.28 69.6063 41.18 69.9863 40.98C70.3663 40.78 70.6663 40.475 70.8863 40.065C71.1163 39.645 71.2313 39.12 71.2313 38.49V37.98L69.2963 38.25C68.4763 38.36 67.8563 38.55 67.4363 38.82C67.0163 39.09 66.8063 39.43 66.8063 39.84C66.8063 40.17 66.9013 40.44 67.0913 40.65C67.2813 40.86 67.5213 41.02 67.8113 41.13C68.1113 41.23 68.4163 41.28 68.7263 41.28ZM75.8983 42C75.7983 42 75.7183 41.97 75.6583 41.91C75.5983 41.85 75.5683 41.77 75.5683 41.67V34.53C75.5683 34.43 75.5983 34.35 75.6583 34.29C75.7183 34.23 75.7983 34.2 75.8983 34.2H80.1433C80.2433 34.2 80.3233 34.23 80.3833 34.29C80.4433 34.35 80.4733 34.43 80.4733 34.53V34.74C80.4733 34.84 80.4433 34.92 80.3833 34.98C80.3233 35.04 80.2433 35.07 80.1433 35.07H76.4833V41.67C76.4833 41.77 76.4533 41.85 76.3933 41.91C76.3333 41.97 76.2533 42 76.1533 42H75.8983ZM85.7829 42.15C84.8129 42.15 84.0429 41.835 83.4729 41.205C82.9029 40.565 82.5779 39.73 82.4979 38.7C82.4879 38.55 82.4829 38.35 82.4829 38.1C82.4829 37.85 82.4879 37.65 82.4979 37.5C82.5479 36.82 82.7079 36.22 82.9779 35.7C83.2479 35.18 83.6179 34.775 84.0879 34.485C84.5679 34.195 85.1329 34.05 85.7829 34.05C86.4829 34.05 87.0779 34.205 87.5679 34.515C88.0579 34.825 88.4329 35.27 88.6929 35.85C88.9629 36.43 89.0979 37.12 89.0979 37.92V38.145C89.0979 38.245 89.0629 38.325 88.9929 38.385C88.9329 38.445 88.8529 38.475 88.7529 38.475H83.4129C83.4129 38.475 83.4129 38.495 83.4129 38.535C83.4129 38.575 83.4129 38.605 83.4129 38.625C83.4329 39.075 83.5379 39.505 83.7279 39.915C83.9179 40.315 84.1879 40.645 84.5379 40.905C84.8879 41.155 85.3029 41.28 85.7829 41.28C86.2129 41.28 86.5679 41.215 86.8479 41.085C87.1379 40.955 87.3679 40.815 87.5379 40.665C87.7079 40.505 87.8179 40.385 87.8679 40.305C87.9579 40.175 88.0279 40.1 88.0779 40.08C88.1279 40.05 88.2079 40.035 88.3179 40.035H88.5579C88.6479 40.035 88.7229 40.065 88.7829 40.125C88.8529 40.175 88.8829 40.245 88.8729 40.335C88.8629 40.475 88.7829 40.65 88.6329 40.86C88.4929 41.06 88.2879 41.26 88.0179 41.46C87.7579 41.66 87.4379 41.825 87.0579 41.955C86.6779 42.085 86.2529 42.15 85.7829 42.15ZM83.4129 37.635H88.1829V37.575C88.1829 37.075 88.0879 36.625 87.8979 36.225C87.7079 35.825 87.4329 35.51 87.0729 35.28C86.7129 35.04 86.2829 34.92 85.7829 34.92C85.2829 34.92 84.8529 35.04 84.4929 35.28C84.1429 35.51 83.8729 35.825 83.6829 36.225C83.5029 36.625 83.4129 37.075 83.4129 37.575V37.635ZM92.4563 42C92.3563 42 92.2763 41.97 92.2163 41.91C92.1563 41.85 92.1263 41.77 92.1263 41.67V34.53C92.1263 34.43 92.1563 34.35 92.2163 34.29C92.2763 34.23 92.3563 34.2 92.4563 34.2H92.7113C92.8113 34.2 92.8913 34.23 92.9513 34.29C93.0113 34.35 93.0413 34.43 93.0413 34.53V37.575H97.7213V34.53C97.7213 34.43 97.7513 34.35 97.8113 34.29C97.8713 34.23 97.9513 34.2 98.0513 34.2H98.3063C98.4063 34.2 98.4863 34.23 98.5463 34.29C98.6063 34.35 98.6363 34.43 98.6363 34.53V41.67C98.6363 41.77 98.6063 41.85 98.5463 41.91C98.4863 41.97 98.4063 42 98.3063 42H98.0513C97.9513 42 97.8713 41.97 97.8113 41.91C97.7513 41.85 97.7213 41.77 97.7213 41.67V38.445H93.0413V41.67C93.0413 41.77 93.0113 41.85 92.9513 41.91C92.8913 41.97 92.8113 42 92.7113 42H92.4563ZM104.497 42C104.397 42 104.317 41.97 104.257 41.91C104.197 41.85 104.167 41.77 104.167 41.67V35.07H101.422C101.322 35.07 101.242 35.04 101.182 34.98C101.122 34.92 101.092 34.84 101.092 34.74V34.53C101.092 34.43 101.122 34.35 101.182 34.29C101.242 34.23 101.322 34.2 101.422 34.2H107.827C107.927 34.2 108.007 34.23 108.067 34.29C108.127 34.35 108.157 34.43 108.157 34.53V34.74C108.157 34.84 108.127 34.92 108.067 34.98C108.007 35.04 107.927 35.07 107.827 35.07H105.082V41.67C105.082 41.77 105.052 41.85 104.992 41.91C104.932 41.97 104.852 42 104.752 42H104.497ZM113.573 42.15C112.873 42.15 112.278 42.015 111.788 41.745C111.298 41.465 110.923 41.065 110.663 40.545C110.413 40.025 110.278 39.41 110.258 38.7C110.248 38.55 110.243 38.35 110.243 38.1C110.243 37.85 110.248 37.65 110.258 37.5C110.278 36.78 110.413 36.165 110.663 35.655C110.923 35.135 111.298 34.74 111.788 34.47C112.278 34.19 112.873 34.05 113.573 34.05C114.103 34.05 114.558 34.125 114.938 34.275C115.328 34.415 115.648 34.605 115.898 34.845C116.148 35.075 116.338 35.33 116.468 35.61C116.598 35.89 116.668 36.165 116.678 36.435C116.688 36.535 116.658 36.615 116.588 36.675C116.518 36.735 116.438 36.765 116.348 36.765H116.138C116.038 36.765 115.963 36.745 115.913 36.705C115.873 36.655 115.828 36.57 115.778 36.45C115.568 35.88 115.278 35.485 114.908 35.265C114.548 35.035 114.103 34.92 113.573 34.92C112.893 34.92 112.328 35.13 111.878 35.55C111.438 35.96 111.203 36.635 111.173 37.575C111.153 37.925 111.153 38.275 111.173 38.625C111.203 39.565 111.438 40.245 111.878 40.665C112.328 41.075 112.893 41.28 113.573 41.28C114.103 41.28 114.548 41.17 114.908 40.95C115.278 40.72 115.568 40.32 115.778 39.75C115.828 39.63 115.873 39.55 115.913 39.51C115.963 39.46 116.038 39.435 116.138 39.435H116.348C116.438 39.435 116.518 39.465 116.588 39.525C116.658 39.585 116.688 39.665 116.678 39.765C116.668 39.985 116.623 40.205 116.543 40.425C116.463 40.645 116.338 40.86 116.168 41.07C116.008 41.28 115.808 41.465 115.568 41.625C115.328 41.785 115.038 41.91 114.698 42C114.368 42.1 113.993 42.15 113.573 42.15ZM122.095 42C121.995 42 121.915 41.97 121.855 41.91C121.795 41.85 121.765 41.77 121.765 41.67V35.07H119.02C118.92 35.07 118.84 35.04 118.78 34.98C118.72 34.92 118.69 34.84 118.69 34.74V34.53C118.69 34.43 118.72 34.35 118.78 34.29C118.84 34.23 118.92 34.2 119.02 34.2H125.425C125.525 34.2 125.605 34.23 125.665 34.29C125.725 34.35 125.755 34.43 125.755 34.53V34.74C125.755 34.84 125.725 34.92 125.665 34.98C125.605 35.04 125.525 35.07 125.425 35.07H122.68V41.67C122.68 41.77 122.65 41.85 122.59 41.91C122.53 41.97 122.45 42 122.35 42H122.095ZM128.546 42C128.446 42 128.366 41.97 128.306 41.91C128.246 41.85 128.216 41.77 128.216 41.67V34.53C128.216 34.43 128.246 34.35 128.306 34.29C128.366 34.23 128.446 34.2 128.546 34.2H131.501C132.331 34.2 132.966 34.385 133.406 34.755C133.856 35.125 134.081 35.62 134.081 36.24C134.081 36.72 133.991 37.075 133.811 37.305C133.631 37.535 133.371 37.73 133.031 37.89C133.431 38.04 133.731 38.305 133.931 38.685C134.131 39.065 134.231 39.445 134.231 39.825C134.231 40.535 133.986 41.075 133.496 41.445C133.016 41.815 132.376 42 131.576 42H128.546ZM129.131 41.13H131.456C132.006 41.13 132.451 41.02 132.791 40.8C133.141 40.58 133.316 40.255 133.316 39.825C133.316 39.365 133.161 39.03 132.851 38.82C132.541 38.61 132.076 38.505 131.456 38.505H129.131V41.13ZM129.131 37.635H131.351C131.901 37.635 132.341 37.51 132.671 37.26C133.001 37.01 133.166 36.67 133.166 36.24C133.166 35.8 133.001 35.495 132.671 35.325C132.341 35.155 131.901 35.07 131.351 35.07H129.131V37.635ZM140.366 42.15C139.646 42.15 139.041 42 138.551 41.7C138.071 41.4 137.701 40.99 137.441 40.47C137.191 39.95 137.056 39.37 137.036 38.73C137.026 38.58 137.021 38.37 137.021 38.1C137.021 37.83 137.026 37.62 137.036 37.47C137.056 36.82 137.191 36.24 137.441 35.73C137.701 35.21 138.071 34.8 138.551 34.5C139.041 34.2 139.646 34.05 140.366 34.05C141.086 34.05 141.686 34.2 142.166 34.5C142.656 34.8 143.026 35.21 143.276 35.73C143.536 36.24 143.676 36.82 143.696 37.47C143.706 37.62 143.711 37.83 143.711 38.1C143.711 38.37 143.706 38.58 143.696 38.73C143.676 39.37 143.536 39.95 143.276 40.47C143.026 40.99 142.656 41.4 142.166 41.7C141.686 42 141.086 42.15 140.366 42.15ZM140.366 41.28C141.066 41.28 141.636 41.055 142.076 40.605C142.516 40.155 142.751 39.505 142.781 38.655C142.791 38.505 142.796 38.32 142.796 38.1C142.796 37.88 142.791 37.695 142.781 37.545C142.751 36.685 142.516 36.035 142.076 35.595C141.636 35.145 141.066 34.92 140.366 34.92C139.666 34.92 139.096 35.145 138.656 35.595C138.216 36.035 137.981 36.685 137.951 37.545C137.941 37.695 137.936 37.88 137.936 38.1C137.936 38.32 137.941 38.505 137.951 38.655C137.981 39.505 138.216 40.155 138.656 40.605C139.096 41.055 139.666 41.28 140.366 41.28Z" fill="black"/>
<defs>
<filter id="filter0_d_40_18" x="0.0999756" y="3.71997" width="180.09" height="27.08" filterUnits="userSpaceOnUse" color-interpolation-filters="sRGB">
<feFlood flood-opacity="0" result="BackgroundImageFix"/>
<feColorMatrix in="SourceAlpha" type="matrix" values="0 0 0 0 0 0 0 0 0 0 0 0 0 0 0 0 0 0 127 0" result="hardAlpha"/>
<feOffset dy="4"/>
<feGaussianBlur stdDeviation="2"/>
<feComposite in2="hardAlpha" operator="out"/>
<feColorMatrix type="matrix" values="0 0 0 0 0.28329 0 0 0 0 0.28329 0 0 0 0 0.28329 0 0 0 0.25 0"/>
<feBlend mode="normal" in2="BackgroundImageFix" result="effect1_dropShadow_40_18"/>
<feBlend mode="normal" in="SourceGraphic" in2="effect1_dropShadow_40_18" result="shape"/>
</filter>
</defs>
</svg>
