<svg width="43" height="38" viewBox="0 0 43 38" fill="none" xmlns="http://www.w3.org/2000/svg">
<g clip-path="url(#clip0_16_3)">
<path d="M21.593 0.371094C9.94988 0.371094 0.513062 8.71068 0.513062 18.9999C0.513062 29.289 9.94988 37.6289 21.593 37.6289C33.2361 37.6289 42.6729 29.2889 42.6729 18.9999C42.6729 8.71068 33.236 0.371094 21.593 0.371094ZM21.593 1.92353C32.2479 1.92353 40.9163 9.58394 40.9163 18.9999C40.9163 23.1424 39.2368 26.9445 36.4491 29.9046C34.5226 29.1936 29.9749 27.7989 27.1597 27.0643C26.9196 26.9977 26.8818 26.987 26.8818 26.1039C26.8818 25.3746 27.2214 24.6403 27.5526 24.0187C27.9111 23.3433 28.3365 22.2078 28.4893 21.189C28.9164 20.7508 29.4979 19.8867 29.8719 18.2396C30.1995 16.788 30.0468 16.2597 29.8291 15.7639C29.8067 15.7116 29.7827 15.6601 29.7656 15.6085C29.6832 15.2681 29.7964 13.4997 30.0778 12.1277C30.2717 11.1862 30.028 9.18435 28.5613 7.52823C27.635 6.48137 25.8628 5.19657 22.6257 5.01771L20.8502 5.01919C17.668 5.19665 15.8941 6.48137 14.9678 7.52823C13.5011 9.18442 13.2575 11.1863 13.4514 12.127C13.7344 13.4997 13.8459 15.2681 13.7653 15.6017C13.7482 15.66 13.7241 15.7116 13.7001 15.7639C13.4839 16.2597 13.3296 16.788 13.659 18.2396C14.0312 19.8867 14.6128 20.7509 15.0416 21.189C15.1926 22.2077 15.6181 23.3433 15.9783 24.0187C16.2407 24.5129 16.3643 25.1852 16.3643 26.1358C16.3643 27.0188 16.3265 27.0295 16.1017 27.0924C13.1906 27.8519 8.55709 29.3315 6.82953 30.0001C3.98699 27.0265 2.26976 23.1879 2.26976 19C2.26968 9.58387 10.938 1.92353 21.593 1.92353ZM8.10231 31.2102C10.0803 30.4966 14.0242 29.2534 16.6145 28.5773C18.1208 28.1573 18.1208 27.0363 18.1208 26.1358C18.1208 25.3891 18.0625 24.2885 17.5684 23.3577C17.2287 22.7202 16.841 21.6271 16.7553 20.7714C16.7364 20.5713 16.6301 20.3863 16.4585 20.2544C16.2097 20.0618 15.7037 19.3569 15.3812 17.935C15.1256 16.8093 15.2337 16.563 15.3383 16.3249C15.3829 16.2233 15.4258 16.1233 15.4602 16.0103C15.6712 15.3289 15.4361 13.0905 15.1805 11.8489C15.0691 11.3092 15.2097 9.77572 16.3522 8.48402C17.3763 7.32658 18.9271 6.68147 20.9051 6.57007L22.5708 6.56851C24.602 6.68147 26.1527 7.32658 27.1786 8.48402C28.3211 9.77572 28.4601 11.3092 28.3485 11.8495C28.0946 13.0905 27.8579 15.3288 28.0688 16.0095C28.105 16.1232 28.146 16.2233 28.1907 16.3249C28.2954 16.5628 28.4034 16.8092 28.1495 17.9349C27.8271 19.3569 27.3193 20.0618 27.0705 20.2544C26.9007 20.3863 26.7944 20.5712 26.7737 20.7713C26.6896 21.627 26.302 22.7201 25.9623 23.3576C25.5729 24.0891 25.1252 25.0632 25.1252 26.1038C25.1252 27.0044 25.1252 28.1255 26.6468 28.5492C29.1257 29.1965 33.0885 30.3995 35.1814 31.1268C31.687 34.1846 26.8853 36.0765 21.593 36.0765C16.3487 36.0765 11.5882 34.218 8.10231 31.2102Z" fill="#37404D"/>
</g>
<defs>
<clipPath id="clip0_16_3">
<rect width="43" height="38" fill="white"/>
</clipPath>
</defs>
</svg>
