<svg width="1105" height="138" viewBox="0 0 1105 138" fill="none" xmlns="http://www.w3.org/2000/svg">
<g filter="url(#filter0_d_20_22)">
<path d="M15 117.489V33.3555H88.1399V117.489H76.2531V40.6871L79.1642 43.8121H23.9757L27.008 40.6871V117.489H15Z" fill="white"/>
<path d="M126.504 106.912C130.708 108.435 134.59 108.835 138.148 108.114C141.706 107.313 144.9 104.629 147.73 100.061L151.854 93.5711L153.067 92.249L184.239 33.3555H196.247L158.525 102.585C155.695 107.874 152.38 111.88 148.579 114.604C144.859 117.249 140.816 118.691 136.45 118.931C132.164 119.252 127.797 118.451 123.35 116.527L126.504 106.912ZM152.703 102.946L115.466 33.3555H128.444L159.374 93.3307L152.703 102.946Z" fill="white"/>
<path d="M239.136 117.489V40.6871L242.168 43.8121H210.147V33.3555H280.133V43.8121H248.112L251.023 40.6871V117.489H239.136Z" fill="white"/>
<path d="M318.042 69.6531H361.707V79.8693H318.042V69.6531ZM319.134 107.032H368.621V117.489H307.004V33.3555H366.923V43.8121H319.134V107.032Z" fill="white"/>
<path d="M449.892 107.032L447.103 110.157V33.3555H458.989V110.157L455.957 107.032H497.318L494.286 110.157V33.3555H506.173V117.489H399.798V33.3555H411.806V110.157L408.774 107.032H449.892Z" fill="white"/>
<path d="M555.748 69.6531H599.414V79.8693H555.748V69.6531ZM556.84 107.032H606.328V117.489H544.711V33.3555H604.63V43.8121H556.84V107.032Z" fill="white"/>
<path d="M675.351 118.451C668.882 118.451 662.898 117.409 657.4 115.326C651.982 113.162 647.252 110.157 643.208 106.311C639.246 102.385 636.133 97.8178 633.869 92.6095C631.605 87.4013 630.473 81.6722 630.473 75.4223C630.473 69.1723 631.605 63.4432 633.869 58.235C636.133 53.0267 639.287 48.4995 643.33 44.6534C647.373 40.7272 652.103 37.7224 657.521 35.6391C663.02 33.4757 669.003 32.394 675.472 32.394C682.022 32.394 688.047 33.5157 693.545 35.7593C699.125 37.9227 703.855 41.1679 707.736 45.4948L699.852 53.0668C696.618 49.7014 692.979 47.2175 688.936 45.6149C684.893 43.9323 680.567 43.0909 675.958 43.0909C671.187 43.0909 666.739 43.8922 662.615 45.4948C658.572 47.0973 655.055 49.3409 652.063 52.2254C649.071 55.11 646.726 58.5555 645.028 62.5618C643.411 66.4881 642.602 70.7749 642.602 75.4223C642.602 80.0696 643.411 84.3965 645.028 88.4029C646.726 92.3291 649.071 95.7345 652.063 98.6191C655.055 101.504 658.572 103.747 662.615 105.35C666.739 106.952 671.187 107.754 675.958 107.754C680.567 107.754 684.893 106.952 688.936 105.35C692.979 103.667 696.618 101.103 699.852 97.6576L707.736 105.23C703.855 109.556 699.125 112.842 693.545 115.085C688.047 117.329 681.982 118.451 675.351 118.451Z" fill="white"/>
<path d="M752.974 117.489V40.6871L756.006 43.8121H723.985V33.3555H793.971V43.8121H761.95L764.861 40.6871V117.489H752.974Z" fill="white"/>
<path d="M820.843 117.489V75.4223V33.3555H857.352C866.57 33.3555 873.807 35.1984 879.063 38.8843C884.319 42.5701 886.947 47.9386 886.947 54.9898C886.947 61.8808 884.441 67.1692 879.427 70.855C874.414 74.4607 867.824 76.2636 859.656 76.2636L861.84 72.6579C871.301 72.6579 878.538 74.5409 883.551 78.3068C888.645 81.9927 891.193 87.4013 891.193 94.5326C891.193 101.744 888.524 107.393 883.187 111.479C877.931 115.486 870.088 117.489 859.656 117.489H820.843ZM832.851 107.994H859.414C865.883 107.994 870.734 106.832 873.969 104.508C877.284 102.105 878.942 98.4588 878.942 93.5711C878.942 88.6833 877.284 85.1176 873.969 82.8741C870.734 80.6305 865.883 79.5087 859.414 79.5087H832.851V107.994ZM832.851 70.3742H856.503C862.406 70.3742 866.894 69.2124 869.966 66.8887C873.12 64.565 874.697 61.1596 874.697 56.6725C874.697 52.1052 873.12 48.6598 869.966 46.3361C866.894 44.0124 862.406 42.8506 856.503 42.8506H832.851V70.3742Z" fill="white"/>
<path d="M922.159 106.912C926.364 108.435 930.246 108.835 933.804 108.114C937.362 107.313 940.556 104.629 943.386 100.061L947.51 93.5711L948.723 92.249L979.895 33.3555H991.903L954.181 102.585C951.351 107.874 948.035 111.88 944.235 114.604C940.515 117.249 936.472 118.691 932.105 118.931C927.82 119.252 923.453 118.451 919.006 116.527L922.159 106.912ZM948.359 102.946L911.122 33.3555H924.1L955.03 93.3307L948.359 102.946Z" fill="white"/>
<path d="M1016.62 117.489V33.3555H1028.63V98.2585L1078.84 33.3555H1090V117.489H1078.11V52.7062L1027.78 117.489H1016.62ZM1053.13 27.4661C1046.5 27.4661 1041.36 26.0238 1037.72 23.1393C1034.16 20.2547 1032.35 16.2083 1032.26 11H1040.88C1040.96 14.125 1042.09 16.5688 1044.27 18.3316C1046.46 20.0143 1049.41 20.8556 1053.13 20.8556C1056.77 20.8556 1059.68 20.0143 1061.86 18.3316C1064.12 16.5688 1065.3 14.125 1065.38 11H1073.87C1073.79 16.2083 1071.93 20.2547 1068.29 23.1393C1064.73 26.0238 1059.68 27.4661 1053.13 27.4661Z" fill="white"/>
</g>
<defs>
<filter id="filter0_d_20_22" x="0" y="0" width="1105" height="138" filterUnits="userSpaceOnUse" color-interpolation-filters="sRGB">
<feFlood flood-opacity="0" result="BackgroundImageFix"/>
<feColorMatrix in="SourceAlpha" type="matrix" values="0 0 0 0 0 0 0 0 0 0 0 0 0 0 0 0 0 0 127 0" result="hardAlpha"/>
<feOffset dy="4"/>
<feGaussianBlur stdDeviation="7.5"/>
<feComposite in2="hardAlpha" operator="out"/>
<feColorMatrix type="matrix" values="0 0 0 0 0 0 0 0 0 0 0 0 0 0 0 0 0 0 0.75 0"/>
<feBlend mode="normal" in2="BackgroundImageFix" result="effect1_dropShadow_20_22"/>
<feBlend mode="normal" in="SourceGraphic" in2="effect1_dropShadow_20_22" result="shape"/>
</filter>
</defs>
</svg>
